<svg width="15" height="15" viewBox="0 0 15 15" fill="none" xmlns="http://www.w3.org/2000/svg">
<g clip-path="url(#clip0_104_974)">
<path d="M11.875 0H3.125C2.2965 0.000992411 1.50222 0.330551 0.916387 0.916387C0.330551 1.50222 0.000992411 2.2965 0 3.125L0 11.875C0.000992411 12.7035 0.330551 13.4978 0.916387 14.0836C1.50222 14.6694 2.2965 14.999 3.125 15H11.875C12.7035 14.999 13.4978 14.6694 14.0836 14.0836C14.6694 13.4978 14.999 12.7035 15 11.875V3.125C14.999 2.2965 14.6694 1.50222 14.0836 0.916387C13.4978 0.330551 12.7035 0.000992411 11.875 0V0ZM4.375 13.75V13.125C4.375 12.2962 4.70424 11.5013 5.29029 10.9153C5.87634 10.3292 6.6712 10 7.5 10C8.3288 10 9.12366 10.3292 9.70971 10.9153C10.2958 11.5013 10.625 12.2962 10.625 13.125V13.75H4.375ZM13.75 11.875C13.75 12.3723 13.5525 12.8492 13.2008 13.2008C12.8492 13.5525 12.3723 13.75 11.875 13.75V13.125C11.875 11.9647 11.4141 10.8519 10.5936 10.0314C9.77312 9.21094 8.66032 8.75 7.5 8.75C6.33968 8.75 5.22688 9.21094 4.40641 10.0314C3.58594 10.8519 3.125 11.9647 3.125 13.125V13.75C2.62772 13.75 2.15081 13.5525 1.79917 13.2008C1.44754 12.8492 1.25 12.3723 1.25 11.875V3.125C1.25 2.62772 1.44754 2.15081 1.79917 1.79917C2.15081 1.44754 2.62772 1.25 3.125 1.25H11.875C12.3723 1.25 12.8492 1.44754 13.2008 1.79917C13.5525 2.15081 13.75 2.62772 13.75 3.125V11.875Z" fill="#374957"/>
<path d="M7.50012 2.50024C7.00567 2.50024 6.52232 2.64687 6.1112 2.92157C5.70008 3.19627 5.37964 3.58672 5.19042 4.04354C5.00121 4.50035 4.9517 5.00302 5.04816 5.48797C5.14462 5.97292 5.38273 6.41838 5.73236 6.76801C6.08199 7.11764 6.52745 7.35574 7.0124 7.45221C7.49735 7.54867 8.00002 7.49916 8.45683 7.30994C8.91365 7.12072 9.30409 6.80029 9.5788 6.38917C9.8535 5.97805 10.0001 5.4947 10.0001 5.00024C10.0001 4.3372 9.73673 3.70132 9.26789 3.23248C8.79905 2.76364 8.16316 2.50024 7.50012 2.50024ZM7.50012 6.25024C7.2529 6.25024 7.01122 6.17693 6.80566 6.03958C6.6001 5.90223 6.43988 5.70701 6.34527 5.4786C6.25066 5.25019 6.22591 4.99886 6.27414 4.75638C6.32237 4.51391 6.44142 4.29118 6.61624 4.11636C6.79106 3.94155 7.01378 3.82249 7.25626 3.77426C7.49874 3.72603 7.75007 3.75079 7.97848 3.84539C8.20689 3.94 8.40211 4.10022 8.53946 4.30578C8.67681 4.51134 8.75012 4.75302 8.75012 5.00024C8.75012 5.33176 8.61843 5.64971 8.38401 5.88413C8.14959 6.11855 7.83164 6.25024 7.50012 6.25024Z" fill="#374957"/>
</g>
<defs>
<clipPath id="clip0_104_974">
<rect width="15" height="15" fill="white"/>
</clipPath>
</defs>
</svg>
