<svg width="12" height="12" viewBox="0 0 12 12" fill="none" xmlns="http://www.w3.org/2000/svg">
<g clip-path="url(#clip0_13_211)">
<path d="M11.25 10.5H2.75C2.41848 10.5 2.10054 10.3683 1.86612 10.1339C1.6317 9.89946 1.5 9.58152 1.5 9.25V0.75C1.5 0.551088 1.42098 0.360322 1.28033 0.21967C1.13968 0.0790176 0.948912 0 0.75 0C0.551088 0 0.360322 0.0790176 0.21967 0.21967C0.0790176 0.360322 0 0.551088 0 0.75L0 9.25C0.000794085 9.9791 0.29078 10.6781 0.806333 11.1937C1.32189 11.7092 2.0209 11.9992 2.75 12H11.25C11.4489 12 11.6397 11.921 11.7803 11.7803C11.921 11.6397 12 11.4489 12 11.25C12 11.0511 11.921 10.8603 11.7803 10.7197C11.6397 10.579 11.4489 10.5 11.25 10.5Z" fill="#007215"/>
<path d="M11.25 1.98801H9.70698C9.6081 1.98803 9.51145 2.01736 9.42925 2.07231C9.34704 2.12725 9.28297 2.20533 9.24514 2.29668C9.2073 2.38803 9.1974 2.48855 9.21668 2.58552C9.23597 2.6825 9.28357 2.77158 9.35348 2.84151L9.71998 3.20751L7.92648 5.00001C7.90326 5.02329 7.87567 5.04176 7.8453 5.05436C7.81492 5.06697 7.78236 5.07345 7.74948 5.07345C7.7166 5.07345 7.68403 5.06697 7.65366 5.05436C7.62329 5.04176 7.5957 5.02329 7.57248 5.00001L7.48748 4.91501C7.15417 4.59659 6.71094 4.41891 6.24998 4.41891C5.78902 4.41891 5.3458 4.59659 5.01248 4.91501L2.96249 6.96501C2.89085 7.03419 2.83372 7.11695 2.79441 7.20845C2.7551 7.29996 2.73441 7.39837 2.73355 7.49796C2.73268 7.59754 2.75166 7.6963 2.78937 7.78847C2.82708 7.88065 2.88277 7.96438 2.95319 8.0348C3.02361 8.10522 3.10735 8.16091 3.19952 8.19862C3.29169 8.23633 3.39045 8.25531 3.49004 8.25445C3.58962 8.25358 3.68804 8.23289 3.77954 8.19358C3.87104 8.15428 3.9538 8.09714 4.02298 8.02551L6.07298 5.97551C6.0962 5.95223 6.12379 5.93375 6.15416 5.92115C6.18454 5.90855 6.2171 5.90206 6.24998 5.90206C6.28286 5.90206 6.31543 5.90855 6.3458 5.92115C6.37617 5.93375 6.40376 5.95223 6.42698 5.97551L6.51198 6.06051C6.84541 6.37869 7.28859 6.55622 7.74948 6.55622C8.21037 6.55622 8.65355 6.37869 8.98698 6.06051L10.78 4.26801L11.146 4.63451C11.2159 4.70458 11.305 4.75234 11.4021 4.77172C11.4991 4.7911 11.5998 4.78124 11.6912 4.74339C11.7827 4.70553 11.8608 4.64138 11.9158 4.55907C11.9708 4.47676 12.0001 4.37999 12 4.28101V2.73801C12 2.53909 11.921 2.34833 11.7803 2.20768C11.6397 2.06702 11.4489 1.98801 11.25 1.98801Z" fill="#007215"/>
</g>
<defs>
<clipPath id="clip0_13_211">
<rect width="12" height="12" fill="white"/>
</clipPath>
</defs>
</svg>
